<?xml version="1.0" standalone="no"?>
<!DOCTYPE svg PUBLIC "-//W3C//DTD SVG 20010904//EN"
 "http://www.w3.org/TR/2001/REC-SVG-20010904/DTD/svg10.dtd">
<svg version="1.0" xmlns="http://www.w3.org/2000/svg"
 width="128.000000pt" height="128.000000pt" viewBox="0 0 128.000000 128.000000"
 preserveAspectRatio="xMidYMid meet">

<g transform="translate(0.000000,128.000000) scale(0.100000,-0.100000)"
fill="#000000" stroke="none">
<path d="M750 1139 c-64 -25 -108 -105 -94 -166 15 -65 85 -123 147 -123 40 0
108 43 128 80 64 118 -57 258 -181 209z"/>
<path d="M600 790 c-13 -13 -20 -33 -20 -60 l0 -39 28 16 c27 15 34 15 113 -5
l85 -21 77 21 c74 20 79 21 112 5 l35 -17 0 36 c0 24 -8 43 -25 59 -24 25 -26
25 -205 25 -167 0 -181 -1 -200 -20z"/>
<path d="M607 673 c-23 -26 -23 -58 1 -48 9 4 43 14 76 23 64 17 60 28 -16 38
-35 5 -46 2 -61 -13z"/>
<path d="M771 645 c-153 -42 -181 -57 -181 -95 0 -23 32 -50 59 -50 27 0 317
77 343 91 26 14 24 75 -1 89 -29 15 -53 12 -220 -35z"/>
<path d="M999 566 c-4 -4 -35 -15 -70 -25 -63 -18 -63 -19 -36 -30 39 -15 92
-14 107 3 11 15 11 64 -1 52z"/>
<path d="M772 499 c-12 -4 -52 -14 -88 -22 -64 -13 -67 -14 -80 -53 -46 -136
-246 -155 -326 -30 l-20 31 7 -29 c12 -55 49 -119 95 -166 146 -145 379 -143
519 4 58 63 86 114 99 184 9 52 9 52 -17 52 -14 0 -46 6 -71 14 -75 22 -94 25
-118 15z"/>
</g>
</svg>
