<svg width="100" height="100" viewBox="0 0 100 100" fill="none" xmlns="http://www.w3.org/2000/svg">
<path d="M20.0536 3.18168e-07H79.9464C82.58 -0.000468837 85.1879 0.517912 87.6211 1.52553C90.0544 2.53315 92.2653 4.01027 94.1275 5.87251C95.9897 7.73475 97.4669 9.94562 98.4745 12.3788C99.4821 14.8121 100 17.42 100 20.0536V79.9464C100 82.58 99.4821 85.1879 98.4745 87.6211C97.4669 90.0544 95.9897 92.2653 94.1275 94.1275C92.2653 95.9897 90.0544 97.4669 87.6211 98.4745C85.1879 99.4821 82.58 100 79.9464 100H20.0536C17.42 100 14.8121 99.4821 12.3788 98.4745C9.94562 97.4669 7.73475 95.9897 5.87251 94.1275C4.01027 92.2653 2.53315 90.0544 1.52553 87.6211C0.517912 85.1879 -0.000468837 82.58 3.18168e-07 79.9464V20.0536C-0.000468837 17.42 0.517912 14.8121 1.52553 12.3788C2.53315 9.94562 4.01027 7.73475 5.87251 5.87251C7.73475 4.01027 9.94562 2.53315 12.3788 1.52553C14.8121 0.517912 17.42 -0.000468837 20.0536 3.18168e-07Z" fill="white"/>
<path d="M20.0536 3.18168e-07H79.9464C82.58 -0.000468837 85.1879 0.517912 87.6211 1.52553C90.0544 2.53315 92.2653 4.01027 94.1275 5.87251C95.9897 7.73475 97.4669 9.94562 98.4745 12.3788C99.4821 14.8121 100 17.42 100 20.0536V79.9464C100 82.58 99.4821 85.1879 98.4745 87.6211C97.4669 90.0544 95.9897 92.2653 94.1275 94.1275C92.2653 95.9897 90.0544 97.4669 87.6211 98.4745C85.1879 99.4821 82.58 100 79.9464 100H20.0536C17.42 100 14.8121 99.4821 12.3788 98.4745C9.94562 97.4669 7.73475 95.9897 5.87251 94.1275C4.01027 92.2653 2.53315 90.0544 1.52553 87.6211C0.517912 85.1879 -0.000468837 82.58 3.18168e-07 79.9464V20.0536C-0.000468837 17.42 0.517912 14.8121 1.52553 12.3788C2.53315 9.94562 4.01027 7.73475 5.87251 5.87251C7.73475 4.01027 9.94562 2.53315 12.3788 1.52553C14.8121 0.517912 17.42 -0.000468837 20.0536 3.18168e-07Z" fill="white"/>
<path fill-rule="evenodd" clip-rule="evenodd" d="M79.9464 100H66.666V87.5H98.5285C97.0261 91.1936 94.4569 94.3555 91.149 96.582C87.841 98.8085 83.9445 99.9985 79.9571 100H79.9464Z" fill="#FFD166"/>
<path fill-rule="evenodd" clip-rule="evenodd" d="M33.334 87.5V100H20.0519C16.0645 99.9985 12.168 98.8085 8.86002 96.582C5.55208 94.3555 2.98286 91.1936 1.48047 87.5H33.334Z" fill="#2BB793"/>
<path fill-rule="evenodd" clip-rule="evenodd" d="M33.334 87.5H66.6679V100H33.334V87.5Z" fill="#83BDE4"/>
<path d="M27.3802 54.0357C27.3501 54.5485 27.4368 55.0614 27.6338 55.5357C27.8324 55.8853 28.1538 56.1488 28.5356 56.275L27.0909 60.8607C25.9948 60.8131 24.917 60.5625 23.9124 60.1214C23.0615 59.6925 22.3578 59.0199 21.8909 58.1893C21.2513 59.126 20.3774 59.8789 19.3564 60.3729C18.3354 60.867 17.2028 61.085 16.0713 61.0054C15.228 61.0425 14.3858 60.91 13.5947 60.6155C12.8036 60.321 12.0797 59.8706 11.4659 59.2911C10.8841 58.7146 10.4281 58.0238 10.1269 57.2621C9.82565 56.5004 9.68572 55.6846 9.71592 54.8661C9.66623 53.913 9.85862 52.9629 10.2751 52.1042C10.6917 51.2456 11.3188 50.5063 12.0981 49.9554C14.1809 48.6926 16.6014 48.1004 19.032 48.2589H20.4034V47.7893C20.4462 47.4421 20.417 47.0898 20.3178 46.7543C20.2186 46.4188 20.0514 46.1074 19.8266 45.8393C19.1691 45.4296 18.3934 45.2516 17.6231 45.3339C16.8757 45.3533 16.1319 45.4436 15.4016 45.6036C14.4665 45.7936 13.5439 46.0411 12.6391 46.3446L11.0856 41.7947C13.5153 40.8388 16.0964 40.3253 18.707 40.2786C21.0457 40.0778 23.3814 40.6965 25.3141 42.0286C26.0355 42.7112 26.5948 43.5467 26.9511 44.4737C27.3074 45.4007 27.4516 46.3957 27.3731 47.3857V54.0357H27.3802ZM18.2731 55.9857C18.6986 55.9886 19.1169 55.8763 19.4838 55.6607C19.8464 55.4531 20.16 55.1699 20.4034 54.8304V51.9732H19.6463C18.862 51.9108 18.0781 52.0984 17.407 52.5089C17.1604 52.706 16.9656 52.9603 16.8396 53.2497C16.7135 53.5391 16.6601 53.8549 16.6838 54.1696C16.6582 54.6478 16.813 55.1181 17.1177 55.4875C17.2624 55.649 17.441 55.7764 17.6408 55.8607C17.8405 55.945 18.0564 55.984 18.2731 55.975V55.9857ZM42.6838 40.2714C43.7416 40.2138 44.7962 40.4332 45.7432 40.908C46.6903 41.3828 47.4971 42.0965 48.0838 42.9786C49.4243 45.2721 50.0579 47.9103 49.9052 50.5625C49.935 52.3931 49.6106 54.2122 48.9499 55.9197C48.4002 57.3805 47.4676 58.6665 46.2499 59.6429C45.1008 60.5392 43.6803 61.0167 42.2231 60.9964C41.3824 61.0235 40.5459 60.8662 39.7725 60.5355C38.9991 60.2048 38.3075 59.7087 37.7463 59.0821V67.75L30.6034 68.4643V41H36.9588L37.2481 42.8786C37.9383 42.0241 38.8197 41.3439 39.8213 40.8929C40.7257 40.4941 41.7025 40.2856 42.6909 40.2804L42.6838 40.2714ZM39.8749 55.9143C41.6808 55.9143 42.5838 54.1691 42.5838 50.6786C42.6163 49.5516 42.5192 48.4245 42.2945 47.3197C42.2038 46.7387 41.9319 46.2012 41.5177 45.7839C41.1561 45.5195 40.7153 45.386 40.2677 45.4054C39.7197 45.4393 39.1923 45.6266 38.7455 45.9458C38.2988 46.265 37.9507 46.7033 37.7409 47.2107V54.5786C37.9853 54.9897 38.3184 55.3411 38.7159 55.6071C39.0651 55.8146 39.4651 55.921 39.8713 55.9143H39.8749ZM64.8213 40.2786C65.5279 40.242 66.2341 40.3585 66.8915 40.6201C67.5489 40.8818 68.142 41.2825 68.6302 41.7947C69.6203 42.9855 70.118 44.5097 70.0213 46.0554V60.2839H62.8784V47.3554C62.9229 46.8465 62.8291 46.335 62.607 45.875C62.5172 45.7446 62.3952 45.6395 62.2528 45.5701C62.1105 45.5006 61.9526 45.4691 61.7945 45.4786C61.0005 45.4786 60.1939 46.1161 59.3749 47.3911V60.2839H52.232V41H58.482L58.9891 42.9857C59.7602 42.1349 60.6847 41.437 61.7141 40.9286C62.695 40.4836 63.7622 40.2616 64.8391 40.2786H64.8213ZM89.557 54.0286C89.5271 54.5411 89.6132 55.0539 89.8088 55.5286C90.0081 55.8783 90.3301 56.1417 90.7124 56.2679L89.2677 60.8536C88.1715 60.8062 87.0937 60.5556 86.0891 60.1143C85.2383 59.6854 84.5346 59.0127 84.0677 58.1822C83.4283 59.1178 82.5553 59.8699 81.5353 60.3639C80.5154 60.8579 79.384 61.0766 78.2534 60.9982C77.4104 61.0355 76.5684 60.9029 75.7776 60.6084C74.9868 60.3139 74.2632 59.8635 73.6499 59.2839C73.068 58.7075 72.612 58.0166 72.3108 57.255C72.0096 56.4933 71.8697 55.6774 71.8999 54.8589C71.8502 53.9059 72.0425 52.9557 72.4591 52.0971C72.8756 51.2384 73.5027 50.4992 74.282 49.9482C76.3642 48.6857 78.7842 48.0935 81.2141 48.2518H82.5874V47.7821C82.6303 47.4348 82.6011 47.0823 82.5015 46.7468C82.402 46.4112 82.2342 46.0999 82.0088 45.8322C81.352 45.4223 80.5768 45.2444 79.807 45.3268C79.0597 45.3461 78.3158 45.4364 77.5856 45.5964C76.6503 45.7863 75.7277 46.0338 74.8231 46.3375L73.2695 41.7875C75.6985 40.8314 78.2791 40.318 80.8891 40.2714C83.2279 40.0705 85.5636 40.6892 87.4963 42.0214C88.2176 42.704 88.777 43.5395 89.1332 44.4665C89.4895 45.3935 89.6337 46.3886 89.5552 47.3786L89.557 54.0286ZM80.4499 55.9786C80.8748 55.9812 81.2925 55.8689 81.6588 55.6536C82.022 55.4462 82.3363 55.163 82.5802 54.8232V51.9661H81.8213C81.037 51.9042 80.2533 52.0917 79.582 52.5018C79.3369 52.6997 79.1438 52.9544 79.0193 53.2437C78.8948 53.5331 78.8428 53.8485 78.8677 54.1625C78.8412 54.6408 78.9962 55.1114 79.3016 55.4804C79.4463 55.6418 79.625 55.7692 79.8247 55.8535C80.0245 55.9378 80.2404 55.9769 80.457 55.9679L80.4499 55.9786Z" fill="#4D3951"/>
</svg>
