<?xml version="1.0" standalone="no"?>
<!DOCTYPE svg PUBLIC "-//W3C//DTD SVG 20010904//EN"
 "http://www.w3.org/TR/2001/REC-SVG-20010904/DTD/svg10.dtd">
<svg version="1.0" xmlns="http://www.w3.org/2000/svg"
 width="500.000000pt" height="172.000000pt" viewBox="0 0 500.000000 172.000000"
 preserveAspectRatio="xMidYMid meet">

<g transform="translate(0.000000,172.000000) scale(0.100000,-0.100000)"
fill="#000000" stroke="none">
<path d="M4355 1599 c-231 -48 -426 -89 -433 -91 -7 -2 35 -39 93 -83 l105
-80 0 -107 c0 -60 2 -108 5 -108 2 0 39 23 81 50 42 28 79 50 83 50 4 0 42
-25 85 -55 44 -30 80 -54 81 -52 11 12 349 545 352 555 3 7 -2 12 -13 11 -11
-1 -208 -41 -439 -90z m334 7 c-2 -2 -109 -75 -238 -162 -203 -138 -238 -166
-265 -209 l-31 -50 -3 42 c-2 23 -2 63 0 89 l3 46 265 127 c146 71 267 127
269 125 2 -2 2 -6 0 -8z"/>
<path d="M3865 1070 c-60 -21 -105 -39 -99 -39 12 -1 215 66 222 74 10 10 -14
3 -123 -35z"/>
<path d="M3705 1020 c-13 -5 -14 -9 -5 -9 8 0 24 4 35 9 13 5 14 9 5 9 -8 0
-24 -4 -35 -9z"/>
<path d="M3658 1003 c7 -3 16 -2 19 1 4 3 -2 6 -13 5 -11 0 -14 -3 -6 -6z"/>
<path d="M20 650 l0 -240 45 0 45 0 0 240 0 240 -45 0 -45 0 0 -240z"/>
<path d="M210 650 l0 -240 45 0 45 0 0 152 0 153 153 -153 c84 -83 158 -152
165 -152 9 0 12 56 12 240 l0 240 -45 0 -45 0 0 -152 0 -153 -153 153 c-84 83
-158 152 -165 152 -9 0 -12 -56 -12 -240z"/>
<path d="M710 845 l0 -45 80 0 80 0 0 -195 0 -195 45 0 45 0 0 195 0 195 80 0
80 0 0 45 0 45 -205 0 -205 0 0 -45z"/>
<path d="M1200 650 l0 -240 170 0 170 0 0 45 0 45 -125 0 -125 0 0 55 0 55 95
0 95 0 0 45 0 45 -95 0 -95 0 0 50 0 50 130 0 130 0 0 45 0 45 -175 0 -175 0
0 -240z"/>
<path d="M1650 651 l0 -241 45 0 45 0 0 101 0 100 47 -3 47 -3 56 -97 55 -97
52 -1 52 0 -50 87 c-28 49 -55 96 -60 105 -7 14 -3 20 19 32 55 28 77 115 47
180 -28 58 -63 70 -217 74 l-138 4 0 -241z m274 133 c19 -18 20 -38 6 -65 -9
-17 -22 -19 -100 -19 l-90 0 0 50 0 50 84 0 c64 0 88 -4 100 -16z"/>
<path d="M2110 650 l0 -240 45 0 45 0 0 152 0 153 153 -153 c84 -83 158 -152
165 -152 9 0 12 56 12 240 l0 240 -45 0 -45 0 0 -152 0 -153 -153 153 c-84 83
-158 152 -165 152 -9 0 -12 -56 -12 -240z"/>
<path d="M2727 875 c-82 -29 -120 -97 -95 -169 16 -49 53 -73 137 -87 88 -16
123 -66 73 -106 -24 -19 -102 -16 -143 6 l-37 20 -27 -29 c-15 -16 -24 -33
-20 -39 13 -21 84 -51 137 -57 72 -8 130 9 173 52 31 31 35 41 35 87 0 32 -6
62 -16 75 -16 23 -83 62 -106 62 -27 0 -88 21 -103 36 -20 20 -19 30 5 54 25
25 88 27 132 4 30 -16 31 -15 60 14 l30 29 -29 21 c-57 40 -139 51 -206 27z"/>
<path d="M3060 650 l0 -240 45 0 45 0 0 100 0 100 110 0 110 0 0 -100 0 -100
50 0 50 0 0 240 0 240 -50 0 -50 0 0 -95 0 -95 -110 0 -110 0 0 95 0 95 -45 0
-45 0 0 -240z"/>
<path d="M3731 868 c-5 -13 -46 -115 -91 -228 -45 -113 -84 -211 -87 -217 -4
-9 9 -13 45 -13 49 0 50 1 66 40 l16 40 106 0 105 0 17 -40 c16 -38 19 -40 65
-40 26 0 47 3 47 7 0 4 -42 112 -92 240 l-93 233 -48 0 c-40 0 -49 -3 -56 -22z
m95 -195 c16 -43 31 -81 32 -85 2 -4 -29 -8 -68 -8 -65 0 -71 2 -66 18 34 91
60 152 66 152 4 0 20 -35 36 -77z"/>
<path d="M4100 650 l0 -240 175 0 175 0 0 45 0 45 -130 0 -130 0 0 195 0 195
-45 0 -45 0 0 -240z"/>
<path d="M4697 883 c-7 -11 -187 -462 -187 -468 0 -3 22 -5 48 -5 48 0 49 1
65 40 l15 40 107 0 107 0 15 -40 c16 -39 17 -40 65 -40 43 0 49 2 44 18 -3 9
-45 116 -94 237 l-88 220 -46 3 c-25 2 -48 -1 -51 -5z m89 -216 l31 -82 -65
-3 c-35 -2 -67 -1 -69 2 -3 3 10 43 28 90 19 46 36 82 39 80 3 -3 19 -42 36
-87z"/>
<path d="M1945 290 c-11 -17 5 -32 21 -19 7 6 11 15 8 20 -7 12 -21 11 -29 -1z"/>
<path d="M2880 190 c0 -67 4 -110 10 -110 6 0 10 24 10 53 0 40 5 58 18 70 23
21 27 21 46 1 11 -10 16 -34 16 -70 0 -30 5 -54 10 -54 14 0 13 123 -2 138
-15 15 -61 15 -76 0 -9 -9 -12 -2 -12 35 0 26 -4 47 -10 47 -6 0 -10 -43 -10
-110z"/>
<path d="M3055 290 c-8 -13 4 -32 16 -25 12 8 12 35 0 35 -6 0 -13 -4 -16 -10z"/>
<path d="M3610 190 c0 -91 3 -110 15 -110 12 0 15 13 15 60 0 48 4 61 19 70
25 13 27 13 45 -6 11 -10 16 -34 16 -70 0 -30 5 -54 10 -54 14 0 13 123 -2
138 -15 15 -61 15 -76 0 -9 -9 -12 -2 -12 35 0 35 -4 47 -15 47 -12 0 -15 -19
-15 -110z"/>
<path d="M2203 244 c-27 -30 -28 -34 -8 -34 10 0 15 -16 17 -62 3 -60 4 -63
31 -66 31 -4 37 13 7 21 -17 4 -20 14 -20 56 0 44 3 51 20 51 11 0 20 5 20 10
0 6 -9 10 -19 10 -12 0 -21 8 -23 20 -3 18 -5 17 -25 -6z"/>
<path d="M3523 263 c-7 -3 -13 -11 -13 -18 0 -7 -6 -16 -12 -19 -10 -5 -10 -7
0 -12 7 -3 12 -25 12 -53 0 -58 17 -85 51 -78 l24 4 -22 8 c-20 6 -23 14 -23
61 0 47 2 54 20 54 11 0 20 5 20 10 0 6 -9 10 -19 10 -11 0 -21 8 -23 18 -2
11 -9 17 -15 15z"/>
<path d="M3954 255 c-4 -11 -12 -24 -18 -28 -8 -6 -7 -10 2 -14 7 -3 12 -24
12 -53 0 -27 3 -55 6 -64 7 -17 54 -22 54 -6 0 6 -6 10 -14 10 -18 0 -26 22
-26 71 0 35 3 39 25 39 14 0 25 5 25 10 0 6 -9 10 -20 10 -12 0 -24 9 -29 23
-9 21 -9 21 -17 2z"/>
<path d="M4543 244 c-27 -30 -28 -34 -8 -34 10 0 15 -16 17 -62 3 -60 4 -63
31 -66 31 -4 37 13 7 21 -17 4 -20 14 -20 56 0 44 3 51 20 51 11 0 20 5 20 10
0 6 -9 10 -19 10 -12 0 -21 8 -23 20 -3 18 -5 17 -25 -6z"/>
<path d="M4653 253 c-4 -10 -11 -22 -17 -26 -8 -6 -7 -10 2 -14 7 -3 12 -23
12 -49 0 -25 5 -54 10 -65 11 -20 50 -27 50 -9 0 6 -7 10 -15 10 -12 0 -15 13
-15 55 0 48 2 55 20 55 11 0 20 5 20 10 0 6 -9 10 -20 10 -13 0 -20 7 -20 20
0 25 -18 26 -27 3z"/>
<path d="M2339 228 c-27 -9 -49 -44 -49 -77 0 -10 9 -30 21 -45 16 -20 29 -26
60 -26 21 0 39 5 39 10 0 6 -15 10 -33 10 -34 0 -57 15 -57 37 0 9 17 13 55
13 55 0 55 0 49 28 -12 50 -38 66 -85 50z m49 -20 c24 -24 13 -38 -28 -38 -26
0 -40 5 -40 13 0 18 21 37 40 37 9 0 21 -5 28 -12z"/>
<path d="M4783 230 c-45 -18 -58 -95 -23 -130 21 -21 100 -29 100 -10 0 6 -15
10 -32 10 -38 0 -52 8 -61 33 -6 15 0 17 48 17 51 0 55 2 55 23 0 46 -44 74
-87 57z m57 -31 c15 -27 10 -31 -39 -27 -41 3 -41 3 -26 26 20 28 51 28 65 1z"/>
<path d="M1950 155 c0 -43 4 -75 10 -75 6 0 10 32 10 75 0 43 -4 75 -10 75 -6
0 -10 -32 -10 -75z"/>
<path d="M2020 153 c0 -58 3 -73 15 -73 12 0 15 13 15 60 0 48 4 61 19 70 41
21 61 -7 61 -87 0 -24 5 -43 10 -43 16 0 12 126 -4 139 -7 6 -36 10 -65 9
l-51 -2 0 -73z"/>
<path d="M2468 155 c4 -88 20 -100 24 -17 3 48 7 59 26 67 12 5 22 13 22 17 0
13 -38 9 -44 -4 -5 -10 -7 -10 -12 0 -13 29 -19 7 -16 -63z"/>
<path d="M2570 155 c0 -43 4 -75 10 -75 6 0 10 18 10 39 0 51 14 86 36 95 28
11 47 -18 52 -78 2 -31 8 -56 13 -56 13 0 11 107 -1 131 -12 22 -68 27 -88 7
-9 -9 -12 -9 -12 0 0 7 -4 12 -10 12 -6 0 -10 -32 -10 -75z"/>
<path d="M2750 215 c-17 -21 -4 -51 30 -65 50 -21 33 -67 -19 -53 -12 3 -21 1
-21 -6 0 -6 17 -11 40 -11 66 0 78 55 18 86 -37 19 -34 50 5 47 15 -1 27 2 27
8 0 15 -66 10 -80 -6z"/>
<path d="M3050 155 c0 -60 3 -75 15 -75 12 0 15 15 15 75 0 60 -3 75 -15 75
-12 0 -15 -15 -15 -75z"/>
<path d="M3130 125 c0 -63 4 -105 10 -105 6 0 10 15 10 34 l0 34 44 -5 c37 -5
46 -2 60 18 22 32 21 92 -2 112 -22 20 -73 22 -90 5 -9 -9 -12 -9 -12 0 0 7
-4 12 -10 12 -6 0 -10 -42 -10 -105z m100 75 c34 -34 22 -88 -23 -103 -23 -9
-57 26 -57 58 0 25 31 65 50 65 6 0 19 -9 30 -20z"/>
<path d="M3317 223 c-17 -16 -6 -53 21 -70 15 -10 30 -22 34 -28 11 -15 -22
-35 -49 -29 -14 4 -23 2 -23 -5 0 -8 15 -11 41 -9 71 5 80 55 15 86 -35 18
-31 47 7 47 15 -1 27 3 27 7 0 10 -64 11 -73 1z"/>
<path d="M3790 219 c0 -6 9 -8 20 -4 30 9 60 -4 60 -26 0 -14 -7 -19 -29 -19
-33 0 -61 -23 -61 -49 0 -29 23 -41 73 -39 l47 2 0 48 c0 25 -4 58 -10 72 -8
23 -15 26 -55 26 -25 0 -45 -5 -45 -11z m80 -84 c0 -31 -34 -52 -56 -34 -18
15 -18 24 2 43 25 25 54 20 54 -9z"/>
<path d="M4120 155 c0 -43 4 -75 10 -75 6 0 10 21 10 48 0 45 20 92 40 92 24
0 40 -34 40 -86 0 -30 5 -54 10 -54 6 0 10 24 10 54 0 36 5 60 16 70 33 34 54
8 54 -66 0 -45 3 -58 15 -58 11 0 15 12 15 49 0 76 -13 101 -53 101 -18 0 -38
-5 -44 -11 -8 -8 -13 -8 -17 0 -9 15 -59 14 -74 -1 -9 -9 -12 -9 -12 0 0 7 -4
12 -10 12 -6 0 -10 -32 -10 -75z"/>
<path d="M4390 220 c0 -5 13 -7 28 -4 19 4 32 1 41 -10 17 -21 6 -36 -28 -36
-36 0 -53 -21 -49 -57 3 -27 6 -28 56 -29 l52 -1 0 62 c0 34 -5 66 -12 73 -14
14 -88 16 -88 2z m80 -79 c0 -26 -29 -54 -47 -47 -8 3 -17 6 -19 6 -12 0 -1
41 14 49 28 17 52 13 52 -8z"/>
<path d="M4910 155 c0 -60 3 -75 15 -75 11 0 15 13 15 54 0 45 4 58 22 70 26
19 15 35 -12 18 -12 -7 -20 -8 -20 -2 0 5 -4 10 -10 10 -6 0 -10 -32 -10 -75z"/>
</g>
</svg>
